<svg xmlns="http://www.w3.org/2000/svg" viewBox="0 0 32 32" width="32" height="32" xml:space="preserve"><g><path fill="#FFA1F5" d="m21 29.1-2.4-1C10 24.6 4.4 22.3 2.7 17.5c-1.4-3.9.6-8 4.4-9.4 2.2-.8 4.6-.5 6.6.6.8-2.1 2.5-3.9 4.7-4.6 3.9-1.4 8 .6 9.4 4.4 1.7 4.7-1.2 10.1-5.5 18.3L21 29.1z"/><g fill="#C63D2F"><path d="m15.1 9.3-2.8-1.1c.7-1.8 2-3.5 3.7-4.6l1.6 2.5c-1.1.8-2 1.9-2.5 3.2zM26.5 22l-2.7-1.3c1.9-3.8 2.8-6.4 3-8.4l3 .3c-.3 2.4-1.2 5.1-3.3 9.4zm-.1-12.9c-.9-2.5-3.3-4.1-5.9-3.9l-.2-3c4-.3 7.6 2.1 8.9 5.8l-2.8 1.1zM22.3 29.9l-2.6-1.5 2.4-4.4 2.6 1.4z"/></g></g></svg>